TITLE ""
FILE "P1Q_t_0369-0377.mp3" MP3
  TRACK 01 AUDIO
    TITLE "P1Q_t_0369-0377_01"
    INDEX 01 00:00:00
  TRACK 02 AUDIO
    TITLE "P1Q_t_0369-0377_02"
    INDEX 01 00:01:35
  TRACK 03 AUDIO
    TITLE "P1Q_t_0369-0377_03"
    INDEX 01 00:01:57
  TRACK 04 AUDIO
    TITLE "P1Q_t_0369-0377_04"
    INDEX 01 00:06:40
  TRACK 05 AUDIO
    TITLE "P1Q_t_0369-0377_05"
    INDEX 01 00:06:62
  TRACK 06 AUDIO
    TITLE "P1Q_t_0369-0377_06"
    INDEX 01 00:12:31
  TRACK 07 AUDIO
    TITLE "P1Q_t_0369-0377_07"
    INDEX 01 00:13:01
  TRACK 08 AUDIO
    TITLE "P1Q_t_0369-0377_08"
    INDEX 01 00:14:22
  TRACK 09 AUDIO
    TITLE "P1Q_t_0369-0377_09"
    INDEX 01 00:14:44
  TRACK 10 AUDIO
    TITLE "P1Q_t_0369-0377_10"
    INDEX 01 00:16:74
  TRACK 11 AUDIO
    TITLE "P1Q_t_0369-0377_11"
    INDEX 01 00:17:17
  TRACK 12 AUDIO
    TITLE "P1Q_t_0369-0377_12"
    INDEX 01 00:22:41
  TRACK 13 AUDIO
    TITLE "P1Q_t_0369-0377_13"
    INDEX 01 00:23:11
  TRACK 14 AUDIO
    TITLE "P1Q_t_0369-0377_14"
    INDEX 01 00:24:15
  TRACK 15 AUDIO
    TITLE "P1Q_t_0369-0377_15"
    INDEX 01 00:24:36
  TRACK 16 AUDIO
    TITLE "P1Q_t_0369-0377_16"
    INDEX 01 00:25:34
  TRACK 17 AUDIO
    TITLE "P1Q_t_0369-0377_17"
    INDEX 01 00:25:51
  TRACK 18 AUDIO
    TITLE "P1Q_t_0369-0377_18"
    INDEX 01 00:29:30
  TRACK 19 AUDIO
    TITLE "P1Q_t_0369-0377_19"
    INDEX 01 00:30:02
  TRACK 20 AUDIO
    TITLE "P1Q_t_0369-0377_20"
    INDEX 01 00:31:28
  TRACK 21 AUDIO
    TITLE "P1Q_t_0369-0377_21"
    INDEX 01 00:31:48
  TRACK 22 AUDIO
    TITLE "P1Q_t_0369-0377_22"
    INDEX 01 00:34:25
  TRACK 23 AUDIO
    TITLE "P1Q_t_0369-0377_23"
    INDEX 01 00:34:46
  TRACK 24 AUDIO
    TITLE "P1Q_t_0369-0377_24"
    INDEX 01 00:40:37
  TRACK 25 AUDIO
    TITLE "P1Q_t_0369-0377_25"
    INDEX 01 00:41:07
  TRACK 26 AUDIO
    TITLE "P1Q_t_0369-0377_26"
    INDEX 01 00:42:26
  TRACK 27 AUDIO
    TITLE "P1Q_t_0369-0377_27"
    INDEX 01 00:42:46
  TRACK 28 AUDIO
    TITLE "P1Q_t_0369-0377_28"
    INDEX 01 00:45:62
  TRACK 29 AUDIO
    TITLE "P1Q_t_0369-0377_29"
    INDEX 01 00:46:06
  TRACK 30 AUDIO
    TITLE "P1Q_t_0369-0377_30"
    INDEX 01 00:50:24
  TRACK 31 AUDIO
    TITLE "P1Q_t_0369-0377_31"
    INDEX 01 00:50:69
  TRACK 32 AUDIO
    TITLE "P1Q_t_0369-0377_32"
    INDEX 01 00:52:25
  TRACK 33 AUDIO
    TITLE "P1Q_t_0369-0377_33"
    INDEX 01 00:52:46
  TRACK 34 AUDIO
    TITLE "P1Q_t_0369-0377_34"
    INDEX 01 00:55:72
  TRACK 35 AUDIO
    TITLE "P1Q_t_0369-0377_35"
    INDEX 01 00:56:17
  TRACK 36 AUDIO
    TITLE "P1Q_t_0369-0377_36"
    INDEX 01 01:01:57
  TRACK 37 AUDIO
    TITLE "P1Q_t_0369-0377_37"
    INDEX 01 01:02:27
  TRACK 38 AUDIO
    TITLE "P1Q_t_0369-0377_38"
    INDEX 01 01:03:40
  TRACK 39 AUDIO
    TITLE "P1Q_t_0369-0377_39"
    INDEX 01 01:03:60
  TRACK 40 AUDIO
    TITLE "P1Q_t_0369-0377_40"
    INDEX 01 01:06:19
  TRACK 41 AUDIO
    TITLE "P1Q_t_0369-0377_41"
    INDEX 01 01:06:39
  TRACK 42 AUDIO
    TITLE "P1Q_t_0369-0377_42"
    INDEX 01 01:11:10
  TRACK 43 AUDIO
    TITLE "P1Q_t_0369-0377_43"
    INDEX 01 01:11:57
  TRACK 44 AUDIO
    TITLE "P1Q_t_0369-0377_44"
    INDEX 01 01:13:05
  TRACK 45 AUDIO
    TITLE "P1Q_t_0369-0377_45"
    INDEX 01 01:13:50
  TRACK 46 AUDIO
    TITLE "P1Q_t_0369-0377_46"
    INDEX 01 01:14:71
  TRACK 47 AUDIO
    TITLE "P1Q_t_0369-0377_47"
    INDEX 01 01:15:22
  TRACK 48 AUDIO
    TITLE "P1Q_t_0369-0377_48"
    INDEX 01 01:17:52
  TRACK 49 AUDIO
    TITLE "P1Q_t_0369-0377_49"
    INDEX 01 01:17:70
  TRACK 50 AUDIO
    TITLE "P1Q_t_0369-0377_50"
    INDEX 01 01:21:70
  TRACK 51 AUDIO
    TITLE "P1Q_t_0369-0377_51"
    INDEX 01 01:22:42
  TRACK 52 AUDIO
    TITLE "P1Q_t_0369-0377_52"
    INDEX 01 01:23:55
  TRACK 53 AUDIO
    TITLE "P1Q_t_0369-0377_53"
    INDEX 01 01:24:03
  TRACK 54 AUDIO
    TITLE "P1Q_t_0369-0377_54"
    INDEX 01 01:26:71
  TRACK 55 AUDIO
    TITLE "P1Q_t_0369-0377_55"
    INDEX 01 01:27:15
  TRACK 56 AUDIO
    TITLE "P1Q_t_0369-0377_56"
    INDEX 01 01:32:46
